{
  "scene": 0,
  "scenes": [
    {
      "nodes": [
        0
      ]
    }
  ],
  "asset": {
    "version": "2.0",
    "generator": "https://github.com/mikedh/trimesh"
  },
  "accessors": [
    {
      "componentType": 5125,
      "type": "SCALAR",
      "bufferView": 0,
      "count": 66636,
      "max": [
        13003
      ],
      "min": [
        0
      ]
    },
    {
      "componentType": 5126,
      "type": "VEC3",
      "byteOffset": 0,
      "bufferView": 1,
      "count": 13004,
      "max": [
        0.5283260345458984,
        0.2790597677230835,
        0.21092170476913452
      ],
      "min": [
        -0.5063750743865967,
        -0.25763118267059326,
        -0.18421685695648193
      ]
    },
    {
      "componentType": 5126,
      "type": "VEC2",
      "byteOffset": 0,
      "bufferView": 2,
      "count": 13004,
      "max": [
        0.9916689395904541,
        0.9933333396911621
      ],
      "min": [
        0.003333333181217313,
        0.0033333301544189453
      ]
    },
    {
      "componentType": 5126,
      "count": 13004,
      "type": "VEC3",
      "byteOffset": 0,
      "bufferView": 3,
      "max": [
        0.9993833303451538,
        0.9999411702156067,
        0.9999008774757385
      ],
      "min": [
        -0.9993645548820496,
        -0.999959409236908,
        -0.9999876022338867
      ]
    }
  ],
  "meshes": [
    {
      "name": "geometry_0",
      "extras": {
        "processed": true
      },
      "primitives": [
        {
          "attributes": {
            "POSITION": 1,
            "TEXCOORD_0": 2,
            "NORMAL": 3
          },
          "indices": 0,
          "mode": 4,
          "material": 0
        }
      ]
    }
  ],
  "images": [
    {
      "uri": "result_img0.jpg"
    },
    {
      "uri": "result_img1.jpg"
    }
  ],
  "textures": [
    {
      "source": 0
    },
    {
      "source": 1
    }
  ],
  "materials": [
    {
      "pbrMetallicRoughness": {
        "baseColorTexture": {
          "index": 0
        },
        "roughnessFactor": 0.5328031778335571,
        "metallicFactor": 0.012448718771338463
      },
      "doubleSided": false,
      "normalTexture": {
        "index": 1
      }
    }
  ],
  "nodes": [
    {
      "name": "world",
      "children": [
        1
      ]
    },
    {
      "name": "geometry_0",
      "mesh": 0
    }
  ],
  "buffers": [
    {
      "uri": "result_data.bin",
      "byteLength": 682672
    }
  ],
  "bufferViews": [
    {
      "buffer": 0,
      "byteOffset": 0,
      "byteLength": 266544
    },
    {
      "buffer": 0,
      "byteOffset": 266544,
      "byteLength": 156048
    },
    {
      "buffer": 0,
      "byteOffset": 422592,
      "byteLength": 104032
    },
    {
      "buffer": 0,
      "byteOffset": 526624,
      "byteLength": 156048
    }
  ]
}