{
  "scene": 0,
  "scenes": [
    {
      "nodes": [
        0
      ]
    }
  ],
  "asset": {
    "version": "2.0",
    "generator": "https://github.com/mikedh/trimesh"
  },
  "accessors": [
    {
      "componentType": 5125,
      "type": "SCALAR",
      "bufferView": 0,
      "count": 87456,
      "max": [
        18957
      ],
      "min": [
        0
      ]
    },
    {
      "componentType": 5126,
      "type": "VEC3",
      "byteOffset": 0,
      "bufferView": 1,
      "count": 18958,
      "max": [
        0.5001844167709351,
        0.3426402807235718,
        0.1829710602760315
      ],
      "min": [
        -0.5023051500320435,
        -0.3222573399543762,
        -0.2714817523956299
      ]
    },
    {
      "componentType": 5126,
      "type": "VEC2",
      "byteOffset": 0,
      "bufferView": 2,
      "count": 18958,
      "max": [
        0.9933333396911621,
        0.9933333396911621
      ],
      "min": [
        0.003333333181217313,
        0.0033333301544189453
      ]
    },
    {
      "componentType": 5126,
      "count": 18958,
      "type": "VEC3",
      "byteOffset": 0,
      "bufferView": 3,
      "max": [
        0.9999791383743286,
        0.9999480247497559,
        0.999976634979248
      ],
      "min": [
        -0.9999901056289673,
        -0.9999991059303284,
        -0.9999942779541016
      ]
    }
  ],
  "meshes": [
    {
      "name": "geometry_0",
      "extras": {
        "processed": true
      },
      "primitives": [
        {
          "attributes": {
            "POSITION": 1,
            "TEXCOORD_0": 2,
            "NORMAL": 3
          },
          "indices": 0,
          "mode": 4,
          "material": 0
        }
      ]
    }
  ],
  "images": [
    {
      "uri": "result_img0.jpg"
    },
    {
      "uri": "result_img1.jpg"
    }
  ],
  "textures": [
    {
      "source": 0
    },
    {
      "source": 1
    }
  ],
  "materials": [
    {
      "pbrMetallicRoughness": {
        "baseColorTexture": {
          "index": 0
        },
        "roughnessFactor": 0.7132872343063354,
        "metallicFactor": 0
      },
      "doubleSided": false,
      "normalTexture": {
        "index": 1
      }
    }
  ],
  "nodes": [
    {
      "name": "world",
      "children": [
        1
      ]
    },
    {
      "name": "geometry_0",
      "mesh": 0
    }
  ],
  "buffers": [
    {
      "uri": "result_data.bin",
      "byteLength": 956480
    }
  ],
  "bufferViews": [
    {
      "buffer": 0,
      "byteOffset": 0,
      "byteLength": 349824
    },
    {
      "buffer": 0,
      "byteOffset": 349824,
      "byteLength": 227496
    },
    {
      "buffer": 0,
      "byteOffset": 577320,
      "byteLength": 151664
    },
    {
      "buffer": 0,
      "byteOffset": 728984,
      "byteLength": 227496
    }
  ]
}